<svg xmlns="http://www.w3.org/2000/svg" xmlns:xlink="http://www.w3.org/1999/xlink" version="1.1" width="256" height="256" viewBox="0 0 256 256" xml:space="preserve">

<defs>
</defs>
<g style="stroke: none; stroke-width: 0; stroke-dasharray: none; stroke-linecap: butt; stroke-linejoin: miter; stroke-miterlimit: 10; fill: none; fill-rule: nonzero; opacity: 1;" transform="translate(1.4065934065934016 1.4065934065934016) scale(2.81 2.81)" >
	<path d="M 13.139 46.345 H 1.004 C 0.449 46.345 0 45.896 0 45.342 s 0.449 -1.004 1.004 -1.004 h 12.135 c 0.554 0 1.004 0.449 1.004 1.004 S 13.693 46.345 13.139 46.345 z" style="stroke: none; stroke-width: 1; stroke-dasharray: none; stroke-linecap: butt; stroke-linejoin: miter; stroke-miterlimit: 10; fill: rgb(255,195,110); fill-rule: nonzero; opacity: 1;" transform=" matrix(1 0 0 1 0 0) " stroke-linecap="round" />
	<path d="M 29.357 68.978 c 2.78 2.044 4.306 5.384 4.306 8.835 h 23.502 v -0.686 c 0 -3.506 1.711 -6.719 4.43 -8.932 c 5.935 -4.831 9.729 -12.186 9.729 -20.436 c 0 -14.983 -12.498 -27.047 -27.638 -26.335 c -12.98 0.611 -23.828 10.974 -24.983 23.917 C 17.839 55.039 22.239 63.746 29.357 68.978 z" style="stroke: none; stroke-width: 1; stroke-dasharray: none; stroke-linecap: butt; stroke-linejoin: miter; stroke-miterlimit: 10; fill: rgb(255,195,110); fill-rule: nonzero; opacity: 1;" transform=" matrix(1 0 0 1 0 0) " stroke-linecap="round" />
	<path d="M 88.996 46.345 H 76.861 c -0.555 0 -1.004 -0.449 -1.004 -1.004 s 0.449 -1.004 1.004 -1.004 h 12.136 c 0.555 0 1.004 0.449 1.004 1.004 S 89.551 46.345 88.996 46.345 z" style="stroke: none; stroke-width: 1; stroke-dasharray: none; stroke-linecap: butt; stroke-linejoin: miter; stroke-miterlimit: 10; fill: rgb(255,195,110); fill-rule: nonzero; opacity: 1;" transform=" matrix(1 0 0 1 0 0) " stroke-linecap="round" />
	<path d="M 67.529 23.816 c -0.257 0 -0.514 -0.098 -0.71 -0.294 c -0.392 -0.392 -0.392 -1.027 0 -1.419 l 8.581 -8.581 c 0.392 -0.392 1.027 -0.392 1.419 0 s 0.392 1.027 0 1.419 l -8.581 8.581 C 68.042 23.718 67.786 23.816 67.529 23.816 z" style="stroke: none; stroke-width: 1; stroke-dasharray: none; stroke-linecap: butt; stroke-linejoin: miter; stroke-miterlimit: 10; fill: rgb(255,195,110); fill-rule: nonzero; opacity: 1;" transform=" matrix(1 0 0 1 0 0) " stroke-linecap="round" />
	<path d="M 45 14.484 c -0.554 0 -1.004 -0.449 -1.004 -1.004 V 1.345 c 0 -0.554 0.449 -1.004 1.004 -1.004 c 0.554 0 1.004 0.449 1.004 1.004 v 12.135 C 46.003 14.035 45.554 14.484 45 14.484 z" style="stroke: none; stroke-width: 1; stroke-dasharray: none; stroke-linecap: butt; stroke-linejoin: miter; stroke-miterlimit: 10; fill: rgb(255,195,110); fill-rule: nonzero; opacity: 1;" transform=" matrix(1 0 0 1 0 0) " stroke-linecap="round" />
	<path d="M 22.471 23.816 c -0.257 0 -0.514 -0.098 -0.71 -0.294 l -8.581 -8.581 c -0.392 -0.392 -0.392 -1.027 0 -1.419 c 0.392 -0.392 1.027 -0.392 1.419 0 l 8.581 8.581 c 0.392 0.392 0.392 1.027 0 1.419 C 22.984 23.718 22.727 23.816 22.471 23.816 z" style="stroke: none; stroke-width: 1; stroke-dasharray: none; stroke-linecap: butt; stroke-linejoin: miter; stroke-miterlimit: 10; fill: rgb(255,195,110); fill-rule: nonzero; opacity: 1;" transform=" matrix(1 0 0 1 0 0) " stroke-linecap="round" />
	<path d="M 44.968 54.82 c -1.665 0 -3.262 -0.656 -4.444 -1.838 c -1.3 -1.301 -1.962 -3.102 -1.817 -4.942 c 0.24 -3.037 2.71 -5.507 5.747 -5.747 c 1.841 -0.144 3.642 0.517 4.942 1.817 c 1.301 1.301 1.963 3.102 1.818 4.942 c -0.239 3.037 -2.71 5.508 -5.747 5.748 l 0 0 C 45.3 54.813 45.134 54.82 44.968 54.82 z M 44.953 44.281 c -0.114 0 -0.227 0.004 -0.342 0.014 c -2.063 0.163 -3.741 1.841 -3.903 3.903 c -0.099 1.254 0.351 2.481 1.235 3.365 c 0.884 0.884 2.105 1.334 3.366 1.236 l 0 0 c 2.063 -0.163 3.742 -1.841 3.903 -3.903 c 0.099 -1.255 -0.352 -2.482 -1.236 -3.366 C 47.173 44.726 46.087 44.281 44.953 44.281 z" style="stroke: none; stroke-width: 1; stroke-dasharray: none; stroke-linecap: butt; stroke-linejoin: miter; stroke-miterlimit: 10; fill: rgb(255,100,100); fill-rule: nonzero; opacity: 1;" transform=" matrix(1 0 0 1 0 0) " stroke-linecap="round" />
	<path d="M 48.837 73.877 h -2.007 V 60.849 c 0 -1.025 0.641 -1.936 1.594 -2.265 c 0.407 -0.14 0.806 -0.306 1.186 -0.492 c 0.906 -0.443 1.999 -0.254 2.722 0.467 l 0.179 0.178 l 2.643 -2.643 l -0.177 -0.177 c -0.723 -0.723 -0.912 -1.817 -0.47 -2.722 c 0.188 -0.385 0.354 -0.784 0.493 -1.186 c 0.33 -0.955 1.241 -1.595 2.266 -1.595 h 0.241 v -3.738 h -0.242 c -1.025 0 -1.935 -0.64 -2.265 -1.593 c -0.139 -0.405 -0.305 -0.804 -0.493 -1.187 c -0.442 -0.905 -0.253 -1.999 0.47 -2.722 l 0.177 -0.178 l -2.643 -2.644 l -0.178 0.178 c -0.722 0.723 -1.815 0.911 -2.722 0.469 c -0.384 -0.188 -0.783 -0.354 -1.187 -0.493 c -0.953 -0.328 -1.594 -1.239 -1.594 -2.264 v -0.242 h -3.738 v 0.242 c 0 1.026 -0.64 1.936 -1.594 2.265 c -0.406 0.14 -0.805 0.306 -1.186 0.492 c -0.905 0.443 -1.999 0.254 -2.722 -0.469 l -0.177 -0.177 l -2.644 2.643 l 0.178 0.178 c 0.723 0.723 0.912 1.816 0.47 2.721 c -0.189 0.386 -0.355 0.785 -0.493 1.186 c -0.33 0.954 -1.24 1.595 -2.265 1.595 h -0.242 v 3.738 h 0.242 c 1.025 0 1.935 0.64 2.265 1.593 c 0.138 0.401 0.304 0.801 0.493 1.189 c 0.442 0.904 0.253 1.997 -0.47 2.721 l -0.178 0.177 l 2.644 2.643 l 0.177 -0.177 c 0.725 -0.722 1.819 -0.91 2.722 -0.469 c 0.382 0.187 0.781 0.353 1.186 0.493 c 0.954 0.329 1.594 1.24 1.594 2.265 v 13.028 h -2.007 V 60.849 c 0 -0.168 -0.099 -0.319 -0.242 -0.368 c -0.484 -0.167 -0.959 -0.365 -1.414 -0.588 c -0.131 -0.063 -0.305 -0.029 -0.421 0.087 l -0.493 0.494 c -0.611 0.608 -1.599 0.607 -2.205 0 l -3.278 -3.277 c -0.607 -0.61 -0.607 -1.597 0 -2.204 l 0.495 -0.495 c 0.115 -0.116 0.15 -0.288 0.086 -0.42 c -0.225 -0.463 -0.423 -0.938 -0.587 -1.415 c -0.049 -0.14 -0.2 -0.24 -0.368 -0.24 h -0.69 c -0.859 0 -1.559 -0.699 -1.559 -1.558 v -4.636 c 0 -0.859 0.699 -1.559 1.559 -1.559 h 0.69 c 0.167 0 0.319 -0.099 0.368 -0.242 c 0.164 -0.477 0.362 -0.953 0.587 -1.413 c 0.065 -0.132 0.029 -0.305 -0.086 -0.42 L 33.032 42.1 c -0.607 -0.607 -0.608 -1.595 -0.001 -2.204 l 3.279 -3.278 c 0.608 -0.607 1.595 -0.608 2.204 -0.001 l 0.495 0.496 c 0.116 0.115 0.289 0.15 0.421 0.085 c 0.453 -0.222 0.929 -0.419 1.412 -0.587 c 0.143 -0.049 0.243 -0.2 0.243 -0.368 v -0.69 c 0 -0.859 0.699 -1.558 1.558 -1.558 h 4.636 c 0.859 0 1.558 0.699 1.558 1.558 v 0.69 c 0 0.167 0.099 0.319 0.242 0.368 c 0.48 0.166 0.956 0.364 1.412 0.587 c 0.134 0.063 0.306 0.029 0.421 -0.085 l 0.495 -0.495 c 0.609 -0.608 1.597 -0.607 2.204 0 l 3.278 3.278 c 0.608 0.609 0.607 1.597 0 2.204 l -0.495 0.495 c -0.116 0.116 -0.151 0.289 -0.086 0.421 c 0.223 0.455 0.421 0.932 0.587 1.414 c 0.049 0.141 0.2 0.241 0.368 0.241 h 0.691 c 0.859 0 1.558 0.699 1.558 1.559 v 4.636 c 0 0.859 -0.699 1.558 -1.558 1.558 h -0.69 c -0.168 0 -0.319 0.1 -0.368 0.242 c -0.166 0.479 -0.363 0.955 -0.587 1.413 c -0.065 0.132 -0.029 0.305 0.086 0.42 l 0.495 0.495 c 0.607 0.607 0.608 1.595 0.002 2.202 l -3.28 3.279 c -0.609 0.609 -1.597 0.607 -2.204 0 l -0.495 -0.495 c -0.116 -0.116 -0.29 -0.15 -0.42 -0.085 c -0.454 0.222 -0.929 0.42 -1.413 0.587 c -0.142 0.049 -0.242 0.2 -0.242 0.368 V 73.877 z" style="stroke: none; stroke-width: 1; stroke-dasharray: none; stroke-linecap: butt; stroke-linejoin: miter; stroke-miterlimit: 10; fill: rgb(255,100,100); fill-rule: nonzero; opacity: 1;" transform=" matrix(1 0 0 1 0 0) " stroke-linecap="round" />
	<path d="M 33.664 77.813 v 7.45 c 0 2.427 1.968 4.395 4.395 4.395 h 14.713 c 2.427 0 4.395 -1.968 4.395 -4.395 v -7.45 H 33.664 z" style="stroke: none; stroke-width: 1; stroke-dasharray: none; stroke-linecap: butt; stroke-linejoin: miter; stroke-miterlimit: 10; fill: rgb(91,93,110); fill-rule: nonzero; opacity: 1;" transform=" matrix(1 0 0 1 0 0) " stroke-linecap="round" />
</g>
</svg>